<mxfile host="app.diagrams.net" modified="2023-05-10T12:56:01.500Z" agent="Mozilla/5.0 (Macintosh; Intel Mac OS X 10_15_7) AppleWebKit/537.36 (KHTML, like Gecko) Chrome/112.0.0.0 Safari/537.36" etag="HjTO8svGDTHF0QlqfvRx" version="21.2.9" type="github">
  <diagram name="第 1 页" id="1Om3Jd7vHge8rMHmLyx6">
    <mxGraphModel dx="1251" dy="680" grid="1" gridSize="10" guides="1" tooltips="1" connect="1" arrows="1" fold="1" page="1" pageScale="1" pageWidth="827" pageHeight="1169" math="0" shadow="0">
      <root>
        <mxCell id="0" />
        <mxCell id="1" parent="0" />
        <mxCell id="5FjT-ezyBCz3gJRHoSn5-13" value="" style="shape=table;startSize=0;container=1;collapsible=0;childLayout=tableLayout;rounded=1;sketch=1;curveFitting=1;jiggle=2;fontFamily=Comic Sans MS;labelBackgroundColor=#A9C4EB;" vertex="1" parent="1">
          <mxGeometry x="90" y="120" width="640" height="326" as="geometry" />
        </mxCell>
        <mxCell id="5FjT-ezyBCz3gJRHoSn5-18" value="" style="shape=tableRow;horizontal=0;startSize=0;swimlaneHead=0;swimlaneBody=0;top=0;left=0;bottom=0;right=0;collapsible=0;dropTarget=0;fillColor=none;points=[[0,0.5],[1,0.5]];portConstraint=eastwest;labelBackgroundColor=none;rounded=1;sketch=1;curveFitting=1;jiggle=2;" vertex="1" parent="5FjT-ezyBCz3gJRHoSn5-13">
          <mxGeometry width="640" height="64" as="geometry" />
        </mxCell>
        <mxCell id="5FjT-ezyBCz3gJRHoSn5-19" value="&lt;font face=&quot;Comic Sans MS&quot;&gt;时间&lt;/font&gt;" style="shape=partialRectangle;html=1;whiteSpace=wrap;connectable=0;overflow=hidden;fillColor=#dae8fc;top=0;left=0;bottom=0;right=0;pointerEvents=1;fontFamily=Times New Roman;labelBackgroundColor=default;rounded=1;sketch=1;curveFitting=1;jiggle=2;strokeColor=#6c8ebf;" vertex="1" parent="5FjT-ezyBCz3gJRHoSn5-18">
          <mxGeometry width="213" height="64" as="geometry">
            <mxRectangle width="213" height="64" as="alternateBounds" />
          </mxGeometry>
        </mxCell>
        <mxCell id="5FjT-ezyBCz3gJRHoSn5-20" value="事务1" style="shape=partialRectangle;html=1;whiteSpace=wrap;connectable=0;overflow=hidden;fillColor=#dae8fc;top=0;left=0;bottom=0;right=0;pointerEvents=1;labelBackgroundColor=default;rounded=1;sketch=1;curveFitting=1;jiggle=2;strokeColor=#6c8ebf;" vertex="1" parent="5FjT-ezyBCz3gJRHoSn5-18">
          <mxGeometry x="213" width="214" height="64" as="geometry">
            <mxRectangle width="214" height="64" as="alternateBounds" />
          </mxGeometry>
        </mxCell>
        <mxCell id="5FjT-ezyBCz3gJRHoSn5-21" value="事务2" style="shape=partialRectangle;html=1;whiteSpace=wrap;connectable=0;overflow=hidden;fillColor=#dae8fc;top=0;left=0;bottom=0;right=0;pointerEvents=1;labelBackgroundColor=default;rounded=1;sketch=1;curveFitting=1;jiggle=2;strokeColor=#6c8ebf;" vertex="1" parent="5FjT-ezyBCz3gJRHoSn5-18">
          <mxGeometry x="427" width="213" height="64" as="geometry">
            <mxRectangle width="213" height="64" as="alternateBounds" />
          </mxGeometry>
        </mxCell>
        <mxCell id="5FjT-ezyBCz3gJRHoSn5-22" value="" style="shape=tableRow;horizontal=0;startSize=0;swimlaneHead=0;swimlaneBody=0;top=0;left=0;bottom=0;right=0;collapsible=0;dropTarget=0;fillColor=none;points=[[0,0.5],[1,0.5]];portConstraint=eastwest;labelBackgroundColor=none;rounded=1;sketch=1;curveFitting=1;jiggle=2;" vertex="1" parent="5FjT-ezyBCz3gJRHoSn5-13">
          <mxGeometry y="64" width="640" height="66" as="geometry" />
        </mxCell>
        <mxCell id="5FjT-ezyBCz3gJRHoSn5-23" value="@TIME1" style="shape=partialRectangle;html=1;whiteSpace=wrap;connectable=0;overflow=hidden;fillColor=#dae8fc;top=0;left=0;bottom=0;right=0;pointerEvents=1;labelBackgroundColor=none;rounded=1;sketch=1;curveFitting=1;jiggle=2;strokeColor=#6c8ebf;" vertex="1" parent="5FjT-ezyBCz3gJRHoSn5-22">
          <mxGeometry width="213" height="66" as="geometry">
            <mxRectangle width="213" height="66" as="alternateBounds" />
          </mxGeometry>
        </mxCell>
        <mxCell id="5FjT-ezyBCz3gJRHoSn5-24" value="begin" style="shape=partialRectangle;html=1;whiteSpace=wrap;connectable=0;overflow=hidden;fillColor=#dae8fc;top=0;left=0;bottom=0;right=0;pointerEvents=1;labelBackgroundColor=none;rounded=1;sketch=1;curveFitting=1;jiggle=2;strokeColor=#6c8ebf;" vertex="1" parent="5FjT-ezyBCz3gJRHoSn5-22">
          <mxGeometry x="213" width="214" height="66" as="geometry">
            <mxRectangle width="214" height="66" as="alternateBounds" />
          </mxGeometry>
        </mxCell>
        <mxCell id="5FjT-ezyBCz3gJRHoSn5-25" value="begin" style="shape=partialRectangle;html=1;whiteSpace=wrap;connectable=0;overflow=hidden;fillColor=#dae8fc;top=0;left=0;bottom=0;right=0;pointerEvents=1;labelBackgroundColor=none;rounded=1;sketch=1;curveFitting=1;jiggle=2;strokeColor=#6c8ebf;" vertex="1" parent="5FjT-ezyBCz3gJRHoSn5-22">
          <mxGeometry x="427" width="213" height="66" as="geometry">
            <mxRectangle width="213" height="66" as="alternateBounds" />
          </mxGeometry>
        </mxCell>
        <mxCell id="5FjT-ezyBCz3gJRHoSn5-26" value="" style="shape=tableRow;horizontal=0;startSize=0;swimlaneHead=0;swimlaneBody=0;top=0;left=0;bottom=0;right=0;collapsible=0;dropTarget=0;fillColor=none;points=[[0,0.5],[1,0.5]];portConstraint=eastwest;labelBackgroundColor=none;rounded=1;sketch=1;curveFitting=1;jiggle=2;" vertex="1" parent="5FjT-ezyBCz3gJRHoSn5-13">
          <mxGeometry y="130" width="640" height="64" as="geometry" />
        </mxCell>
        <mxCell id="5FjT-ezyBCz3gJRHoSn5-27" value="@TIME2" style="shape=partialRectangle;html=1;whiteSpace=wrap;connectable=0;overflow=hidden;fillColor=#dae8fc;top=0;left=0;bottom=0;right=0;pointerEvents=1;labelBackgroundColor=none;rounded=1;sketch=1;curveFitting=1;jiggle=2;strokeColor=#6c8ebf;" vertex="1" parent="5FjT-ezyBCz3gJRHoSn5-26">
          <mxGeometry width="213" height="64" as="geometry">
            <mxRectangle width="213" height="64" as="alternateBounds" />
          </mxGeometry>
        </mxCell>
        <mxCell id="5FjT-ezyBCz3gJRHoSn5-28" value="获取了 userId_securityGroupRuleId&lt;br&gt;锁，其实锁到了 user粒度" style="shape=partialRectangle;html=1;whiteSpace=wrap;connectable=0;overflow=hidden;fillColor=#dae8fc;top=0;left=0;bottom=0;right=0;pointerEvents=1;labelBackgroundColor=none;rounded=1;sketch=1;curveFitting=1;jiggle=2;strokeColor=#6c8ebf;" vertex="1" parent="5FjT-ezyBCz3gJRHoSn5-26">
          <mxGeometry x="213" width="214" height="64" as="geometry">
            <mxRectangle width="214" height="64" as="alternateBounds" />
          </mxGeometry>
        </mxCell>
        <mxCell id="5FjT-ezyBCz3gJRHoSn5-29" value="根据 sgrule_sgRuleUuid_uk获取了sgRuleUuid 和&lt;br&gt;Primary 锁" style="shape=partialRectangle;html=1;whiteSpace=wrap;connectable=0;overflow=hidden;fillColor=#dae8fc;top=0;left=0;bottom=0;right=0;pointerEvents=1;labelBackgroundColor=none;rounded=1;sketch=1;curveFitting=1;jiggle=2;strokeColor=#6c8ebf;" vertex="1" parent="5FjT-ezyBCz3gJRHoSn5-26">
          <mxGeometry x="427" width="213" height="64" as="geometry">
            <mxRectangle width="213" height="64" as="alternateBounds" />
          </mxGeometry>
        </mxCell>
        <mxCell id="5FjT-ezyBCz3gJRHoSn5-14" value="" style="shape=tableRow;horizontal=0;startSize=0;swimlaneHead=0;swimlaneBody=0;top=0;left=0;bottom=0;right=0;collapsible=0;dropTarget=0;fillColor=none;points=[[0,0.5],[1,0.5]];portConstraint=eastwest;labelBackgroundColor=none;rounded=1;sketch=1;curveFitting=1;jiggle=2;" vertex="1" parent="5FjT-ezyBCz3gJRHoSn5-13">
          <mxGeometry y="194" width="640" height="66" as="geometry" />
        </mxCell>
        <mxCell id="5FjT-ezyBCz3gJRHoSn5-15" value="@TIME3" style="shape=partialRectangle;html=1;whiteSpace=wrap;connectable=0;overflow=hidden;fillColor=#dae8fc;top=0;left=0;bottom=0;right=0;pointerEvents=1;labelBackgroundColor=none;rounded=1;sketch=1;curveFitting=1;jiggle=2;strokeColor=#6c8ebf;" vertex="1" parent="5FjT-ezyBCz3gJRHoSn5-14">
          <mxGeometry width="213" height="66" as="geometry">
            <mxRectangle width="213" height="66" as="alternateBounds" />
          </mxGeometry>
        </mxCell>
        <mxCell id="5FjT-ezyBCz3gJRHoSn5-16" value="等待 Primary 锁" style="shape=partialRectangle;html=1;whiteSpace=wrap;connectable=0;overflow=hidden;fillColor=#dae8fc;top=0;left=0;bottom=0;right=0;pointerEvents=1;labelBackgroundColor=none;rounded=1;sketch=1;curveFitting=1;jiggle=2;strokeColor=#6c8ebf;" vertex="1" parent="5FjT-ezyBCz3gJRHoSn5-14">
          <mxGeometry x="213" width="214" height="66" as="geometry">
            <mxRectangle width="214" height="66" as="alternateBounds" />
          </mxGeometry>
        </mxCell>
        <mxCell id="5FjT-ezyBCz3gJRHoSn5-17" value="等待&amp;nbsp;userId_securityGroupRuleId锁" style="shape=partialRectangle;html=1;whiteSpace=wrap;connectable=0;overflow=hidden;fillColor=#dae8fc;top=0;left=0;bottom=0;right=0;pointerEvents=1;labelBackgroundColor=none;rounded=1;sketch=1;curveFitting=1;jiggle=2;strokeColor=#6c8ebf;" vertex="1" parent="5FjT-ezyBCz3gJRHoSn5-14">
          <mxGeometry x="427" width="213" height="66" as="geometry">
            <mxRectangle width="213" height="66" as="alternateBounds" />
          </mxGeometry>
        </mxCell>
        <mxCell id="5FjT-ezyBCz3gJRHoSn5-34" style="shape=tableRow;horizontal=0;startSize=0;swimlaneHead=0;swimlaneBody=0;top=0;left=0;bottom=0;right=0;collapsible=0;dropTarget=0;fillColor=none;points=[[0,0.5],[1,0.5]];portConstraint=eastwest;labelBackgroundColor=none;rounded=1;sketch=1;curveFitting=1;jiggle=2;" vertex="1" parent="5FjT-ezyBCz3gJRHoSn5-13">
          <mxGeometry y="260" width="640" height="66" as="geometry" />
        </mxCell>
        <mxCell id="5FjT-ezyBCz3gJRHoSn5-35" value="&lt;span style=&quot;color: rgb(0, 0, 0); font-family: Helvetica; font-size: 12px; font-style: normal; font-variant-ligatures: normal; font-variant-caps: normal; font-weight: 400; letter-spacing: normal; orphans: 2; text-align: center; text-indent: 0px; text-transform: none; widows: 2; word-spacing: 0px; -webkit-text-stroke-width: 0px; background-color: rgb(251, 251, 251); text-decoration-thickness: initial; text-decoration-style: initial; text-decoration-color: initial; float: none; display: inline !important;&quot;&gt;@TIME4&lt;/span&gt;" style="shape=partialRectangle;html=1;whiteSpace=wrap;connectable=0;overflow=hidden;fillColor=#dae8fc;top=0;left=0;bottom=0;right=0;pointerEvents=1;labelBackgroundColor=none;rounded=1;sketch=1;curveFitting=1;jiggle=2;strokeColor=#6c8ebf;" vertex="1" parent="5FjT-ezyBCz3gJRHoSn5-34">
          <mxGeometry width="213" height="66" as="geometry">
            <mxRectangle width="213" height="66" as="alternateBounds" />
          </mxGeometry>
        </mxCell>
        <mxCell id="5FjT-ezyBCz3gJRHoSn5-36" style="shape=partialRectangle;html=1;whiteSpace=wrap;connectable=0;overflow=hidden;fillColor=#dae8fc;top=0;left=0;bottom=0;right=0;pointerEvents=1;labelBackgroundColor=none;rounded=1;sketch=1;curveFitting=1;jiggle=2;strokeColor=#6c8ebf;" vertex="1" parent="5FjT-ezyBCz3gJRHoSn5-34">
          <mxGeometry x="213" width="214" height="66" as="geometry">
            <mxRectangle width="214" height="66" as="alternateBounds" />
          </mxGeometry>
        </mxCell>
        <mxCell id="5FjT-ezyBCz3gJRHoSn5-37" value="roalback" style="shape=partialRectangle;html=1;whiteSpace=wrap;connectable=0;overflow=hidden;fillColor=#dae8fc;top=0;left=0;bottom=0;right=0;pointerEvents=1;labelBackgroundColor=none;rounded=1;sketch=1;curveFitting=1;jiggle=2;strokeColor=#6c8ebf;" vertex="1" parent="5FjT-ezyBCz3gJRHoSn5-34">
          <mxGeometry x="427" width="213" height="66" as="geometry">
            <mxRectangle width="213" height="66" as="alternateBounds" />
          </mxGeometry>
        </mxCell>
        <mxCell id="5FjT-ezyBCz3gJRHoSn5-60" value="" style="shape=table;startSize=0;container=1;collapsible=0;childLayout=tableLayout;rounded=1;sketch=1;curveFitting=1;jiggle=2;fontFamily=Comic Sans MS;labelBackgroundColor=#A9C4EB;" vertex="1" parent="1">
          <mxGeometry y="480" width="880" height="479" as="geometry" />
        </mxCell>
        <mxCell id="5FjT-ezyBCz3gJRHoSn5-61" value="" style="shape=tableRow;horizontal=0;startSize=0;swimlaneHead=0;swimlaneBody=0;top=0;left=0;bottom=0;right=0;collapsible=0;dropTarget=0;fillColor=none;points=[[0,0.5],[1,0.5]];portConstraint=eastwest;labelBackgroundColor=none;rounded=1;sketch=1;curveFitting=1;jiggle=2;" vertex="1" parent="5FjT-ezyBCz3gJRHoSn5-60">
          <mxGeometry width="880" height="77" as="geometry" />
        </mxCell>
        <mxCell id="5FjT-ezyBCz3gJRHoSn5-62" value="&lt;font face=&quot;Comic Sans MS&quot;&gt;时间&lt;/font&gt;" style="shape=partialRectangle;html=1;whiteSpace=wrap;connectable=0;overflow=hidden;fillColor=#dae8fc;top=0;left=0;bottom=0;right=0;pointerEvents=1;fontFamily=Times New Roman;labelBackgroundColor=default;rounded=1;sketch=1;curveFitting=1;jiggle=2;strokeColor=#6c8ebf;" vertex="1" parent="5FjT-ezyBCz3gJRHoSn5-61">
          <mxGeometry width="287" height="77" as="geometry">
            <mxRectangle width="287" height="77" as="alternateBounds" />
          </mxGeometry>
        </mxCell>
        <mxCell id="5FjT-ezyBCz3gJRHoSn5-63" value="事务1" style="shape=partialRectangle;html=1;whiteSpace=wrap;connectable=0;overflow=hidden;fillColor=#dae8fc;top=0;left=0;bottom=0;right=0;pointerEvents=1;labelBackgroundColor=default;rounded=1;sketch=1;curveFitting=1;jiggle=2;strokeColor=#6c8ebf;" vertex="1" parent="5FjT-ezyBCz3gJRHoSn5-61">
          <mxGeometry x="287" width="300" height="77" as="geometry">
            <mxRectangle width="300" height="77" as="alternateBounds" />
          </mxGeometry>
        </mxCell>
        <mxCell id="5FjT-ezyBCz3gJRHoSn5-64" value="事务2" style="shape=partialRectangle;html=1;whiteSpace=wrap;connectable=0;overflow=hidden;fillColor=#dae8fc;top=0;left=0;bottom=0;right=0;pointerEvents=1;labelBackgroundColor=default;rounded=1;sketch=1;curveFitting=1;jiggle=2;strokeColor=#6c8ebf;" vertex="1" parent="5FjT-ezyBCz3gJRHoSn5-61">
          <mxGeometry x="587" width="293" height="77" as="geometry">
            <mxRectangle width="293" height="77" as="alternateBounds" />
          </mxGeometry>
        </mxCell>
        <mxCell id="5FjT-ezyBCz3gJRHoSn5-65" value="" style="shape=tableRow;horizontal=0;startSize=0;swimlaneHead=0;swimlaneBody=0;top=0;left=0;bottom=0;right=0;collapsible=0;dropTarget=0;fillColor=none;points=[[0,0.5],[1,0.5]];portConstraint=eastwest;labelBackgroundColor=none;rounded=1;sketch=1;curveFitting=1;jiggle=2;" vertex="1" parent="5FjT-ezyBCz3gJRHoSn5-60">
          <mxGeometry y="77" width="880" height="77" as="geometry" />
        </mxCell>
        <mxCell id="5FjT-ezyBCz3gJRHoSn5-66" value="@TIME1" style="shape=partialRectangle;html=1;whiteSpace=wrap;connectable=0;overflow=hidden;fillColor=#dae8fc;top=0;left=0;bottom=0;right=0;pointerEvents=1;labelBackgroundColor=none;rounded=1;sketch=1;curveFitting=1;jiggle=2;strokeColor=#6c8ebf;" vertex="1" parent="5FjT-ezyBCz3gJRHoSn5-65">
          <mxGeometry width="287" height="77" as="geometry">
            <mxRectangle width="287" height="77" as="alternateBounds" />
          </mxGeometry>
        </mxCell>
        <mxCell id="5FjT-ezyBCz3gJRHoSn5-67" value="begin" style="shape=partialRectangle;html=1;whiteSpace=wrap;connectable=0;overflow=hidden;fillColor=#dae8fc;top=0;left=0;bottom=0;right=0;pointerEvents=1;labelBackgroundColor=none;rounded=1;sketch=1;curveFitting=1;jiggle=2;strokeColor=#6c8ebf;" vertex="1" parent="5FjT-ezyBCz3gJRHoSn5-65">
          <mxGeometry x="287" width="300" height="77" as="geometry">
            <mxRectangle width="300" height="77" as="alternateBounds" />
          </mxGeometry>
        </mxCell>
        <mxCell id="5FjT-ezyBCz3gJRHoSn5-68" value="begin" style="shape=partialRectangle;html=1;whiteSpace=wrap;connectable=0;overflow=hidden;fillColor=#dae8fc;top=0;left=0;bottom=0;right=0;pointerEvents=1;labelBackgroundColor=none;rounded=1;sketch=1;curveFitting=1;jiggle=2;strokeColor=#6c8ebf;" vertex="1" parent="5FjT-ezyBCz3gJRHoSn5-65">
          <mxGeometry x="587" width="293" height="77" as="geometry">
            <mxRectangle width="293" height="77" as="alternateBounds" />
          </mxGeometry>
        </mxCell>
        <mxCell id="5FjT-ezyBCz3gJRHoSn5-69" value="" style="shape=tableRow;horizontal=0;startSize=0;swimlaneHead=0;swimlaneBody=0;top=0;left=0;bottom=0;right=0;collapsible=0;dropTarget=0;fillColor=none;points=[[0,0.5],[1,0.5]];portConstraint=eastwest;labelBackgroundColor=none;rounded=1;sketch=1;curveFitting=1;jiggle=2;" vertex="1" parent="5FjT-ezyBCz3gJRHoSn5-60">
          <mxGeometry y="154" width="880" height="89" as="geometry" />
        </mxCell>
        <mxCell id="5FjT-ezyBCz3gJRHoSn5-70" value="@TIME2" style="shape=partialRectangle;html=1;whiteSpace=wrap;connectable=0;overflow=hidden;fillColor=#dae8fc;top=0;left=0;bottom=0;right=0;pointerEvents=1;labelBackgroundColor=none;rounded=1;sketch=1;curveFitting=1;jiggle=2;strokeColor=#6c8ebf;" vertex="1" parent="5FjT-ezyBCz3gJRHoSn5-69">
          <mxGeometry width="287" height="89" as="geometry">
            <mxRectangle width="287" height="89" as="alternateBounds" />
          </mxGeometry>
        </mxCell>
        <mxCell id="5FjT-ezyBCz3gJRHoSn5-71" value="select * from t_security_group_rule where id=1567410 for update;" style="shape=partialRectangle;html=1;whiteSpace=wrap;connectable=0;overflow=hidden;fillColor=#dae8fc;top=0;left=0;bottom=0;right=0;pointerEvents=1;labelBackgroundColor=none;rounded=1;sketch=1;curveFitting=1;jiggle=2;strokeColor=#6c8ebf;" vertex="1" parent="5FjT-ezyBCz3gJRHoSn5-69">
          <mxGeometry x="287" width="300" height="89" as="geometry">
            <mxRectangle width="300" height="89" as="alternateBounds" />
          </mxGeometry>
        </mxCell>
        <mxCell id="5FjT-ezyBCz3gJRHoSn5-72" value="" style="shape=partialRectangle;html=1;whiteSpace=wrap;connectable=0;overflow=hidden;fillColor=#dae8fc;top=0;left=0;bottom=0;right=0;pointerEvents=1;labelBackgroundColor=none;rounded=1;sketch=1;curveFitting=1;jiggle=2;strokeColor=#6c8ebf;" vertex="1" parent="5FjT-ezyBCz3gJRHoSn5-69">
          <mxGeometry x="587" width="293" height="89" as="geometry">
            <mxRectangle width="293" height="89" as="alternateBounds" />
          </mxGeometry>
        </mxCell>
        <mxCell id="5FjT-ezyBCz3gJRHoSn5-73" value="" style="shape=tableRow;horizontal=0;startSize=0;swimlaneHead=0;swimlaneBody=0;top=0;left=0;bottom=0;right=0;collapsible=0;dropTarget=0;fillColor=none;points=[[0,0.5],[1,0.5]];portConstraint=eastwest;labelBackgroundColor=none;rounded=1;sketch=1;curveFitting=1;jiggle=2;" vertex="1" parent="5FjT-ezyBCz3gJRHoSn5-60">
          <mxGeometry y="243" width="880" height="78" as="geometry" />
        </mxCell>
        <mxCell id="5FjT-ezyBCz3gJRHoSn5-74" value="@TIME3" style="shape=partialRectangle;html=1;whiteSpace=wrap;connectable=0;overflow=hidden;fillColor=#dae8fc;top=0;left=0;bottom=0;right=0;pointerEvents=1;labelBackgroundColor=none;rounded=1;sketch=1;curveFitting=1;jiggle=2;strokeColor=#6c8ebf;" vertex="1" parent="5FjT-ezyBCz3gJRHoSn5-73">
          <mxGeometry width="287" height="78" as="geometry">
            <mxRectangle width="287" height="78" as="alternateBounds" />
          </mxGeometry>
        </mxCell>
        <mxCell id="5FjT-ezyBCz3gJRHoSn5-75" value="" style="shape=partialRectangle;html=1;whiteSpace=wrap;connectable=0;overflow=hidden;fillColor=#dae8fc;top=0;left=0;bottom=0;right=0;pointerEvents=1;labelBackgroundColor=none;rounded=1;sketch=1;curveFitting=1;jiggle=2;strokeColor=#6c8ebf;" vertex="1" parent="5FjT-ezyBCz3gJRHoSn5-73">
          <mxGeometry x="287" width="300" height="78" as="geometry">
            <mxRectangle width="300" height="78" as="alternateBounds" />
          </mxGeometry>
        </mxCell>
        <mxCell id="5FjT-ezyBCz3gJRHoSn5-76" value="update t_security_group_rule set is_deleted=1 where security_group_rule_uuid =&#39;d256ae6c-83ea-40e6-bf15-387faf103c6f&#39;;" style="shape=partialRectangle;html=1;whiteSpace=wrap;connectable=0;overflow=hidden;fillColor=#dae8fc;top=0;left=0;bottom=0;right=0;pointerEvents=1;labelBackgroundColor=none;rounded=1;sketch=1;curveFitting=1;jiggle=2;strokeColor=#6c8ebf;" vertex="1" parent="5FjT-ezyBCz3gJRHoSn5-73">
          <mxGeometry x="587" width="293" height="78" as="geometry">
            <mxRectangle width="293" height="78" as="alternateBounds" />
          </mxGeometry>
        </mxCell>
        <mxCell id="5FjT-ezyBCz3gJRHoSn5-77" style="shape=tableRow;horizontal=0;startSize=0;swimlaneHead=0;swimlaneBody=0;top=0;left=0;bottom=0;right=0;collapsible=0;dropTarget=0;fillColor=none;points=[[0,0.5],[1,0.5]];portConstraint=eastwest;labelBackgroundColor=none;rounded=1;sketch=1;curveFitting=1;jiggle=2;" vertex="1" parent="5FjT-ezyBCz3gJRHoSn5-60">
          <mxGeometry y="321" width="880" height="79" as="geometry" />
        </mxCell>
        <mxCell id="5FjT-ezyBCz3gJRHoSn5-78" value="&lt;span style=&quot;color: rgb(0, 0, 0); font-family: Helvetica; font-size: 12px; font-style: normal; font-variant-ligatures: normal; font-variant-caps: normal; font-weight: 400; letter-spacing: normal; orphans: 2; text-align: center; text-indent: 0px; text-transform: none; widows: 2; word-spacing: 0px; -webkit-text-stroke-width: 0px; background-color: rgb(251, 251, 251); text-decoration-thickness: initial; text-decoration-style: initial; text-decoration-color: initial; float: none; display: inline !important;&quot;&gt;@TIME4&lt;/span&gt;" style="shape=partialRectangle;html=1;whiteSpace=wrap;connectable=0;overflow=hidden;fillColor=#dae8fc;top=0;left=0;bottom=0;right=0;pointerEvents=1;labelBackgroundColor=none;rounded=1;sketch=1;curveFitting=1;jiggle=2;strokeColor=#6c8ebf;" vertex="1" parent="5FjT-ezyBCz3gJRHoSn5-77">
          <mxGeometry width="287" height="79" as="geometry">
            <mxRectangle width="287" height="79" as="alternateBounds" />
          </mxGeometry>
        </mxCell>
        <mxCell id="5FjT-ezyBCz3gJRHoSn5-79" value="delete from t_security_group_rule where id=1567410;" style="shape=partialRectangle;html=1;whiteSpace=wrap;connectable=0;overflow=hidden;fillColor=#dae8fc;top=0;left=0;bottom=0;right=0;pointerEvents=1;labelBackgroundColor=none;rounded=1;sketch=1;curveFitting=1;jiggle=2;strokeColor=#6c8ebf;" vertex="1" parent="5FjT-ezyBCz3gJRHoSn5-77">
          <mxGeometry x="287" width="300" height="79" as="geometry">
            <mxRectangle width="300" height="79" as="alternateBounds" />
          </mxGeometry>
        </mxCell>
        <mxCell id="5FjT-ezyBCz3gJRHoSn5-80" value="" style="shape=partialRectangle;html=1;whiteSpace=wrap;connectable=0;overflow=hidden;fillColor=#dae8fc;top=0;left=0;bottom=0;right=0;pointerEvents=1;labelBackgroundColor=none;rounded=1;sketch=1;curveFitting=1;jiggle=2;strokeColor=#6c8ebf;" vertex="1" parent="5FjT-ezyBCz3gJRHoSn5-77">
          <mxGeometry x="587" width="293" height="79" as="geometry">
            <mxRectangle width="293" height="79" as="alternateBounds" />
          </mxGeometry>
        </mxCell>
        <mxCell id="5FjT-ezyBCz3gJRHoSn5-81" style="shape=tableRow;horizontal=0;startSize=0;swimlaneHead=0;swimlaneBody=0;top=0;left=0;bottom=0;right=0;collapsible=0;dropTarget=0;fillColor=none;points=[[0,0.5],[1,0.5]];portConstraint=eastwest;labelBackgroundColor=none;rounded=1;sketch=1;curveFitting=1;jiggle=2;" vertex="1" parent="5FjT-ezyBCz3gJRHoSn5-60">
          <mxGeometry y="400" width="880" height="79" as="geometry" />
        </mxCell>
        <mxCell id="5FjT-ezyBCz3gJRHoSn5-82" value="@TIME4" style="shape=partialRectangle;html=1;whiteSpace=wrap;connectable=0;overflow=hidden;fillColor=#dae8fc;top=0;left=0;bottom=0;right=0;pointerEvents=1;labelBackgroundColor=none;rounded=1;sketch=1;curveFitting=1;jiggle=2;strokeColor=#6c8ebf;" vertex="1" parent="5FjT-ezyBCz3gJRHoSn5-81">
          <mxGeometry width="287" height="79" as="geometry">
            <mxRectangle width="287" height="79" as="alternateBounds" />
          </mxGeometry>
        </mxCell>
        <mxCell id="5FjT-ezyBCz3gJRHoSn5-83" style="shape=partialRectangle;html=1;whiteSpace=wrap;connectable=0;overflow=hidden;fillColor=#dae8fc;top=0;left=0;bottom=0;right=0;pointerEvents=1;labelBackgroundColor=none;rounded=1;sketch=1;curveFitting=1;jiggle=2;strokeColor=#6c8ebf;" vertex="1" parent="5FjT-ezyBCz3gJRHoSn5-81">
          <mxGeometry x="287" width="300" height="79" as="geometry">
            <mxRectangle width="300" height="79" as="alternateBounds" />
          </mxGeometry>
        </mxCell>
        <mxCell id="5FjT-ezyBCz3gJRHoSn5-84" value="deadlocak" style="shape=partialRectangle;html=1;whiteSpace=wrap;connectable=0;overflow=hidden;fillColor=#dae8fc;top=0;left=0;bottom=0;right=0;pointerEvents=1;labelBackgroundColor=none;rounded=1;sketch=1;curveFitting=1;jiggle=2;strokeColor=#6c8ebf;" vertex="1" parent="5FjT-ezyBCz3gJRHoSn5-81">
          <mxGeometry x="587" width="293" height="79" as="geometry">
            <mxRectangle width="293" height="79" as="alternateBounds" />
          </mxGeometry>
        </mxCell>
      </root>
    </mxGraphModel>
  </diagram>
</mxfile>
